<?xml version="1.0" encoding="UTF-8" standalone="no"?>
<!-- Created with Inkscape (http://www.inkscape.org/) -->

<svg
   width="210mm"
   height="297mm"
   viewBox="0 0 210 297"
   version="1.1"
   id="svg1"
   inkscape:version="1.4.2 (ebf0e940d0, 2025-05-08)"
   sodipodi:docname="firefly.svg"
   xmlns:inkscape="http://www.inkscape.org/namespaces/inkscape"
   xmlns:sodipodi="http://sodipodi.sourceforge.net/DTD/sodipodi-0.dtd"
   xmlns="http://www.w3.org/2000/svg"
   xmlns:svg="http://www.w3.org/2000/svg">
  <sodipodi:namedview
     id="namedview1"
     pagecolor="#505050"
     bordercolor="#eeeeee"
     borderopacity="1"
     inkscape:showpageshadow="0"
     inkscape:pageopacity="0"
     inkscape:pagecheckerboard="0"
     inkscape:deskcolor="#505050"
     inkscape:document-units="mm"
     inkscape:zoom="1.0607991"
     inkscape:cx="126.79121"
     inkscape:cy="17.911027"
     inkscape:window-width="1920"
     inkscape:window-height="1044"
     inkscape:window-x="1920"
     inkscape:window-y="0"
     inkscape:window-maximized="1"
     inkscape:current-layer="layer1" />
  <defs
     id="defs1" />
  <g
     inkscape:label="Layer 1"
     inkscape:groupmode="layer"
     id="layer1">
    <path
       id="path1-3"
       style="font-variation-settings:'wdth' 95, 'wght' 500;fill:none;stroke:#000000;stroke-width:2.35474;stroke-linejoin:round"
       d="m -38.956948,-28.31664 c 11.322765,0.02642 27.752606,9.453673 27.752606,20.75439 0,0 -38.202132,1.303581 -38.202132,-13.491181 0,-5.085698 4.518562,-7.27705 10.449526,-7.263209 z m 21.816786,20.61421 c 3.585183,0.01898 5.93582,0.14018 5.93582,0.14018 0,17.220132 -38.202132,26.967329 -38.202132,12.172563 0,-11.096074 21.510737,-12.369586 32.266312,-12.312743 z"
       sodipodi:nodetypes="scssscss" />
    <path
       id="path1-3-9"
       style="font-variation-settings:'wdth' 95, 'wght' 500;fill:none;stroke:#000000;stroke-width:2.35474;stroke-linejoin:round"
       d="m 39.748406,-28.316643 c -11.32277,0.02642 -27.75261,9.453673 -27.75261,20.754393 0,0 38.20213,1.30358 38.20213,-13.491184 0,-5.085698 -4.51856,-7.27705 -10.44952,-7.263209 z M 17.931616,-7.70243 c -3.58518,0.019 -5.93582,0.14018 -5.93582,0.14018 0,17.220131 38.20213,26.967329 38.20213,12.172561 0,-11.096071 -21.51073,-12.369591 -32.26631,-12.312741 z"
       sodipodi:nodetypes="scssscss" />
    <path
       id="path3-5"
       style="font-variation-settings:'wdth' 95, 'wght' 500;fill:#ffbe0e;fill-opacity:1;stroke:#000000;stroke-width:2.20468;stroke-linejoin:round"
       d="m 2.9100356,1.10234 a 44.659756,27.601246 0 0 0 -16.7540096,2.0159 c -0.11137,0.69844 -0.17674,1.4515 -0.17674,2.28462 0,5.443609 1.52538,34.031929 14.40687963,34.772549 C 13.267656,39.434789 14.793036,10.846469 14.793036,5.40286 c 0,-1.28289 -0.15595,-2.37701 -0.39429,-3.37189 A 44.659756,27.601246 0 0 0 2.9100356,1.10234 Z" />
    <path
       d="m 0.39546563,-39.40837 c -9.57057903,0 -14.44356163,12.57643 -14.44356163,17.99942 0,5.42298 2.843754,8.37028 2.843754,13.8467 0,4.63847 -2.013608,6.81601 -2.629813,10.68152 A 44.659756,27.601246 0 0 1 2.9198556,1.10337 44.659756,27.601246 0 0 1 14.398746,2.03097 c -0.77399,-3.22107 -2.40295,-5.41183 -2.40295,-9.59322 0,-5.47642 2.84375,-8.42372 2.84375,-13.8467 0,-5.42299 -4.8735204,-17.99942 -14.44408037,-17.99942 z"
       style="font-variation-settings:'wdth' 95, 'wght' 500;fill:#000000;stroke:#000000;stroke-width:2.20468;stroke-linejoin:round"
       id="path4" />
  </g>
</svg>
